<svg xmlns="http://www.w3.org/2000/svg">

    <symbol id="twitter" viewBox="0 0 1000 1000">
        <path d="M920 214c-24 36 -55.333 68.667 -94 98c0 0 0 24 0 24c0 86.667 -20 170 -60 250c-40 80 -102 147.667 -186 203c-84 55.333 -180.667 83 -290 83c-106.667 0 -203.333 -28 -290 -84c9.333 1.333 24.667 2 46 2c88 0 166 -26.667 234 -80c-41.333 -1.333 -78 -14 -110 -38c-32 -24 -54 -55.333 -66 -94c6.667 2.667 18 4 34 4c17.333 0 34 -2 50 -6c-44 -9.333 -80 -31.333 -108 -66c-28 -34.667 -42 -74.667 -42 -120c0 0 0 -2 0 -2c24 13.333 52 21.333 84 24c-56 -38.667 -84 -91.333 -84 -158c0 -32 8.667 -63.333 26 -94c102.667 125.333 232.667 190.667 390 196c-4 -12 -6 -26 -6 -42c0 -52 18.333 -96.333 55 -133c36.667 -36.667 81.667 -55 135 -55c54.667 0 100 19.333 136 58c40 -8 80 -22.667 120 -44c-13.333 44 -40.667 78.667 -82 104c37.333 -5.333 73.333 -15.333 108 -30c0 0 0 0 0 0" />
    </symbol>

    <symbol id="home" viewBox="0 0 900 1000">
        <path d="M888.1875 514c10.667 10.667 14.333 19.667 11 27c-3.333 7.333 -12.333 11 -27 11c0 0 -84 0 -84 0c0 0 0 310 0 310c0 9.333 -0.333 16.333 -1 21c-0.667 4.667 -3.333 9 -8 13c-4.667 4 -12.333 6 -23 6c0 0 -204 0 -204 0c0 0 0 -310 0 -310c0 0 -204 0 -204 0c0 0 0 310 0 310c0 0 -194 0 -194 0c-18.667 0 -30.333 -3.333 -35 -10c-4.667 -6.667 -7 -16.667 -7 -30c0 0 0 -310 0 -310c0 0 -84 0 -84 0c-14.667 0 -23.667 -3.667 -27 -11c-3.333 -7.333 0.333 -16.333 11 -27c0 0 400 -402 400 -402c10.667 -10.667 23.333 -16 38 -16c14.667 0 27.333 5.333 38 16c0 0 400 402 400 402" />
    </symbol>

    <symbol id="flash" viewBox="0 0 400 1000">
         <path d="M40 950c-2.667 -2.667 9 -34 35 -94c26 -60 52.333 -120.667 79 -182c26.667 -61.333 39.333 -94 38 -98c-1.333 -4 -32.667 -19 -94 -45c-61.333 -26 -94 -44.333 -98 -55c-2.667 -8 25.333 -48 84 -120c58.667 -72 118.667 -141.667 180 -209c61.333 -67.333 93.333 -99.667 96 -97c4 2.667 -20.667 64.667 -74 186c-53.333 121.333 -79.333 183.333 -78 186c1.333 2.667 33 17 95 43c62 26 94.333 45 97 57c2.667 13.333 -55.333 89 -174 227c-118.667 138 -180.667 205 -186 201c0 0 0 0 0 0" />
    </symbol>

    <symbol id="bell" viewBox="0 0 800 1000">
        <path d="M632.234375 424c10.667 22.667 24 40 40 52c16 12 31 19.333 45 22c14 2.667 28.667 10.333 44 23c15.333 12.667 27 31 35 55c14.667 41.333 -10 95 -74 161c-64 66 -148 118.333 -252 157c-109.333 38.667 -208.333 53.667 -297 45c-88.667 -8.667 -140.333 -33.667 -155 -75c-13.333 -36 -9.333 -73 12 -111c21.333 -38 27.333 -75 18 -111c-37.333 -128 -53 -228 -47 -300c6 -72 43.667 -136 113 -192c17.333 -14.667 27 -31.667 29 -51c2 -19.333 11.667 -32.333 29 -39c16 -5.333 31.333 -1.333 46 12c14.667 13.333 33.333 19.333 56 18c88 -1.333 154 20.667 198 66c44 45.333 97.333 134.667 160 268c0 0 0 0 0 0m-186 404c58.667 -21.333 111.667 -49.667 159 -85c47.333 -35.333 80.667 -65.667 100 -91c19.333 -25.333 27.667 -42 25 -50c-5.333 -14.667 -21.667 -25.667 -49 -33c-27.333 -7.333 -68.667 -7.667 -124 -1c-55.333 6.667 -117.667 22.667 -187 48c-68 25.333 -125.667 54.333 -173 87c-47.333 32.667 -78.667 60.667 -94 84c-15.333 23.333 -21 41 -17 53c2.667 8 19.333 15.333 50 22c30.667 6.667 75.333 8 134 4c58.667 -4 117.333 -16.667 176 -38c0 0 0 0 0 0m-62 -174c5.333 -1.333 12.333 -3.667 21 -7c8.667 -3.333 14.333 -5.667 17 -7c0 0 2 2 2 2c9.333 26.667 3.667 54.333 -17 83c-20.667 28.667 -50.333 49.667 -89 63c-64 24 -114.667 19.333 -152 -14c52 -45.333 124.667 -85.333 218 -120c0 0 0 0 0 0" />
    </symbol>

    <symbol id="mail" viewBox="0 0 800 1000">
        <path d="M30 264c-21.333 -12 -30.667 -25.333 -28 -40c1.333 -9.333 10 -14 26 -14c0 0 846 0 846 0c25.333 0 32 10.667 20 32c-5.333 9.333 -13.333 16.667 -24 22c-9.333 4 -73.333 38 -192 102c-118.667 64 -179.333 96.667 -182 98c-10.667 6.667 -26 10 -46 10c-18.667 0 -34 -3.333 -46 -10c-2.667 -1.333 -63.333 -34 -182 -98c-118.667 -64 -182.667 -98 -192 -102c0 0 0 0 0 0m850 100c13.333 -6.667 20 -3.333 20 10c0 0 0 368 0 368c0 10.667 -5.667 21.333 -17 32c-11.333 10.667 -22.333 16 -33 16c0 0 -800 0 -800 0c-10.667 0 -21.667 -5.333 -33 -16c-11.333 -10.667 -17 -21.333 -17 -32c0 0 0 -368 0 -368c0 -13.333 6.667 -16.667 20 -10c0 0 384 200 384 200c12 6.667 27.333 10 46 10c18.667 0 34 -3.333 46 -10c0 0 384 -200 384 -200" />
    </symbol>

</svg>
